<?xml version='1.0' encoding='iso-8859-1'?>
<svg version="1.1" xmlns="http://www.w3.org/2000/svg" viewBox="0 0 359.558 359.558" xmlns:xlink="http://www.w3.org/1999/xlink" enable-background="new 0 0 359.558 359.558">
  <g>
    <path d="m349.113,132.399l-130.202-130.203c-2.929-2.927-7.677-2.929-10.607,2.22045e-15-2.929,2.93-2.929,7.678 0,10.607l125.714,125.714-41.049,57.58-77.479-77.479c-17.271-17.271-40.244-26.782-64.685-26.782-19.005,0-37.259,5.808-52.787,16.795l-.584,.413c-1.805,1.276-2.954,3.284-3.142,5.487-0.188,2.202 0.606,4.376 2.169,5.939l150.875,150.876c1.413,1.412 3.323,2.196 5.303,2.196 0.212,0 0.424-0.009 0.637-0.027 2.202-0.187 4.21-1.336 5.486-3.141l41.299-58.368c0.046-0.065 0.085-0.134 0.129-0.2l49.727-69.75c2.126-2.983 1.786-7.066-0.804-9.657zm-97.459,122.052l-137.982-137.984c11.332-6.322 24.02-9.632 37.133-9.632 20.435,0 39.64,7.951 54.077,22.39l79.257,79.256-1.686,2.365c-0.161,0.226-0.306,0.459-0.438,0.696l-30.361,42.909z"/>
    <path d="m144.748,212.451l-58.294,58.293c-2.929,2.93-2.929,7.678 0,10.607 1.465,1.464 3.384,2.196 5.304,2.196 1.919,0 3.839-0.732 5.304-2.196l58.294-58.293c2.929-2.93 2.929-7.678 0-10.607-2.93-2.927-7.678-2.927-10.608,0z"/>
    <path d="m102.848,158.663c-1.032-4.011-5.122-6.427-9.133-5.393l-79.835,20.558c-4.012,1.032-6.426,5.122-5.393,9.133 0.871,3.384 3.918,5.632 7.258,5.632 0.619,0 1.248-0.077 1.875-0.239l79.835-20.558c4.012-1.033 6.427-5.123 5.393-9.133z"/>
    <path d="m209.143,264.958c-4.011-1.038-8.1,1.382-9.133,5.393l-20.558,79.836c-1.033,4.011 1.381,8.101 5.393,9.133 0.627,0.162 1.256,0.239 1.875,0.239 3.34,0 6.387-2.248 7.258-5.632l20.558-79.836c1.033-4.011-1.381-8.101-5.393-9.133z"/>
  </g>
</svg>
